<?xml version="1.0" encoding="UTF-8"?>
<svg id="Layer_2" data-name="Layer 2" xmlns="http://www.w3.org/2000/svg" viewBox="0 0 434.91 92.57">
  <defs>
    <style>
      .cls-1 {
        fill: #fc9522;
      }

      .cls-2 {
        fill: #efedee;
      }
    </style>
  </defs>
  <g id="Layer_1-2" data-name="Layer 1">
    <g>
      <path class="cls-1" d="M405.91,1.28c-22.71-5.61-40.41,7.93-44.02,28.26-4.27,24.03,21.32,61.31,21.32,61.31,0,0,41.75-20.3,49.83-44.56,6.52-19.58-4.42-39.39-27.13-45.01ZM412.55,39.02c-1.95,7.88-9.91,12.69-17.79,10.74-7.88-1.95-12.69-9.91-10.74-17.79,1.95-7.88,9.91-12.69,17.79-10.74,7.88,1.95,12.69,9.91,10.74,17.79Z"/>
      <g>
        <path class="cls-2" d="M22.61,40.44v11.5h27.97v17.05h-27.97v21.46H0V23.38h54.51v17.05h-31.9Z"/>
        <path class="cls-2" d="M63.67,23.36h22.61v49.53l45.02-1.53-8.14,19.06h-59.49V23.36Z"/>
        <path class="cls-2" d="M213.49,90.2l-10.67-24.1c3.46,5.21,36.77,9.22,44.14,9.22,6.42,0,5.72-8.01,4.47-9.94-4.5-6.94-33.23,2.86-33.23-22.15,0-12.45,10.84-20.8,31.63-20.8,9.01,0,18.3,1.92,25.29,5.84l-6.8,16.38c-6.61-3.35-12.84-4.98-18.68-4.98-6.61,0-8.72,1.92-8.72,4.21,0,8.05,35.03,1.23,35.03,25.94,0,12.26-13.47,22.99-29.19,22.72-11.57-.19-27.76-1.9-33.28-2.36Z"/>
        <path class="cls-2" d="M350.83,23.38v67.06h-22.61v-24.72h-20.88v24.72h-22.61V23.38h22.61v23.76h20.88v-23.76h22.61Z"/>
        <path class="cls-2" d="M179.42,23.38h-22.23l-29.31,67.06h22.99l4.5-11.69h25.48l4.5,11.69h23.37l-29.31-67.06ZM161.76,62.48l-2.99-6.49,6.58-9.68,11.58-17.84-7.22,25.21,5.02,8.9-18.07,13.39,5.58-12.1-.55-1.51"/>
      </g>
    </g>
  </g>
</svg>